REM DIRINDEX 1\2\4\8,1\2\4\9,1\2\4\10,1\2\5\11,1\2\5\12,1\2\5\13,1\2\5\14,1\2\5\15,1\3\6\16,1\3\6\17,1\3\6\18,1\3\7\19,1\3\7\20,1\3\7\21,1\3\7\22,1\3\7\23
REM DIRNAME "folder01","folder02","folder03","folder04","folder05","folder06","folder07","folder08","folder09","folder10","folder11","folder12","folder13","folder14","folder15","folder16","folder17","folder18","folder19","folder20","folder21","folder22","folder23"
TITLE ""
FILE "LR_black_phrase_C03.mp3" MP3
  TRACK 01 AUDIO
    TITLE "0:"
    INDEX 01 00:00:00
  TRACK 02 AUDIO
    TITLE "19:cjc171_14201"
    INDEX 01 00:00:14
  TRACK 03 AUDIO
    TITLE "0:"
    INDEX 01 00:01:31
  TRACK 04 AUDIO
    TITLE "20:cjc171_14202"
    INDEX 01 00:01:69
  TRACK 05 AUDIO
    TITLE "0:"
    INDEX 01 00:04:02
  TRACK 06 AUDIO
    TITLE "21:cjc171_14203"
    INDEX 01 00:05:04
  TRACK 07 AUDIO
    TITLE "0:"
    INDEX 01 00:07:26
  TRACK 08 AUDIO
    TITLE "22:cjc171_14204"
    INDEX 01 00:07:65
  TRACK 09 AUDIO
    TITLE "0:"
    INDEX 01 00:10:30
  TRACK 10 AUDIO
    TITLE "23:cjc171_14205"
    INDEX 01 00:10:60
  TRACK 11 AUDIO
    TITLE "0:"
    INDEX 01 00:13:25
  TRACK 12 AUDIO
    TITLE "19:cjc171_14206"
    INDEX 01 00:14:30
  TRACK 13 AUDIO
    TITLE "0:"
    INDEX 01 00:15:35
  TRACK 14 AUDIO
    TITLE "20:cjc171_14207"
    INDEX 01 00:15:75
  TRACK 15 AUDIO
    TITLE "0:"
    INDEX 01 00:17:19
  TRACK 16 AUDIO
    TITLE "21:cjc171_14208"
    INDEX 01 00:18:20
  TRACK 17 AUDIO
    TITLE "0:"
    INDEX 01 00:20:29
  TRACK 18 AUDIO
    TITLE "22:cjc171_14209"
    INDEX 01 00:20:70
  TRACK 19 AUDIO
    TITLE "0:"
    INDEX 01 00:22:49
  TRACK 20 AUDIO
    TITLE "23:cjc171_14210"
    INDEX 01 00:23:05
  TRACK 21 AUDIO
    TITLE "0:"
    INDEX 01 00:24:60
  TRACK 22 AUDIO
    TITLE "19:cjc171_14211"
    INDEX 01 00:25:59
  TRACK 23 AUDIO
    TITLE "0:"
    INDEX 01 00:26:70
  TRACK 24 AUDIO
    TITLE "20:cjc171_14212"
    INDEX 01 00:27:35
  TRACK 25 AUDIO
    TITLE "0:"
    INDEX 01 00:28:46
  TRACK 26 AUDIO
    TITLE "21:cjc171_14213"
    INDEX 01 00:29:47
  TRACK 27 AUDIO
    TITLE "0:"
    INDEX 01 00:32:44
  TRACK 28 AUDIO
    TITLE "22:cjc171_14214"
    INDEX 01 00:33:06
  TRACK 29 AUDIO
    TITLE "0:"
    INDEX 01 00:36:10
  TRACK 30 AUDIO
    TITLE "23:cjc171_14215"
    INDEX 01 00:36:36
  TRACK 31 AUDIO
    TITLE "0:"
    INDEX 01 00:39:36
  TRACK 32 AUDIO
    TITLE "19:cjc171_14216"
    INDEX 01 00:40:35
  TRACK 33 AUDIO
    TITLE "0:"
    INDEX 01 00:41:50
  TRACK 34 AUDIO
    TITLE "20:cjc171_14217"
    INDEX 01 00:42:15
  TRACK 35 AUDIO
    TITLE "0:"
    INDEX 01 00:43:20
  TRACK 36 AUDIO
    TITLE "21:cjc171_14218"
    INDEX 01 00:44:19
  TRACK 37 AUDIO
    TITLE "0:"
    INDEX 01 00:46:50
  TRACK 38 AUDIO
    TITLE "22:cjc171_14219"
    INDEX 01 00:47:16
  TRACK 39 AUDIO
    TITLE "0:"
    INDEX 01 00:49:68
  TRACK 40 AUDIO
    TITLE "23:cjc171_14220"
    INDEX 01 00:50:20
  TRACK 41 AUDIO
    TITLE "0:"
    INDEX 01 00:52:74
  TRACK 42 AUDIO
    TITLE "19:cjc171_14221"
    INDEX 01 00:54:02
  TRACK 43 AUDIO
    TITLE "0:"
    INDEX 01 00:55:15
  TRACK 44 AUDIO
    TITLE "20:cjc171_14222"
    INDEX 01 00:55:54
  TRACK 45 AUDIO
    TITLE "0:"
    INDEX 01 00:57:22
  TRACK 46 AUDIO
    TITLE "21:cjc171_14223"
    INDEX 01 00:58:23
  TRACK 47 AUDIO
    TITLE "0:"
    INDEX 01 01:00:65
  TRACK 48 AUDIO
    TITLE "22:cjc171_14224"
    INDEX 01 01:01:28
  TRACK 49 AUDIO
    TITLE "0:"
    INDEX 01 01:03:70
  TRACK 50 AUDIO
    TITLE "23:cjc171_14225"
    INDEX 01 01:04:22
  TRACK 51 AUDIO
    TITLE "0:"
    INDEX 01 01:06:64
  TRACK 52 AUDIO
    TITLE "19:cjc171_14226"
    INDEX 01 01:07:69
  TRACK 53 AUDIO
    TITLE "0:"
    INDEX 01 01:09:10
  TRACK 54 AUDIO
    TITLE "20:cjc171_14227"
    INDEX 01 01:09:47
  TRACK 55 AUDIO
    TITLE "0:"
    INDEX 01 01:10:74
  TRACK 56 AUDIO
    TITLE "21:cjc171_14228"
    INDEX 01 01:11:75
  TRACK 57 AUDIO
    TITLE "0:"
    INDEX 01 01:13:68
  TRACK 58 AUDIO
    TITLE "22:cjc171_14229"
    INDEX 01 01:14:32
  TRACK 59 AUDIO
    TITLE "0:"
    INDEX 01 01:16:04
  TRACK 60 AUDIO
    TITLE "23:cjc171_14230"
    INDEX 01 01:16:35
  TRACK 61 AUDIO
    TITLE "0:"
    INDEX 01 01:18:06
  TRACK 62 AUDIO
    TITLE "19:cjc171_14231"
    INDEX 01 01:19:12
  TRACK 63 AUDIO
    TITLE "0:"
    INDEX 01 01:20:37
  TRACK 64 AUDIO
    TITLE "20:cjc171_14232"
    INDEX 01 01:20:70
  TRACK 65 AUDIO
    TITLE "0:"
    INDEX 01 01:23:45
  TRACK 66 AUDIO
    TITLE "21:cjc171_14233"
    INDEX 01 01:24:44
  TRACK 67 AUDIO
    TITLE "0:"
    INDEX 01 01:27:05
  TRACK 68 AUDIO
    TITLE "22:cjc171_14234"
    INDEX 01 01:27:41
  TRACK 69 AUDIO
    TITLE "0:"
    INDEX 01 01:30:21
  TRACK 70 AUDIO
    TITLE "23:cjc171_14235"
    INDEX 01 01:30:45
  TRACK 71 AUDIO
    TITLE "0:"
    INDEX 01 01:33:26
  TRACK 72 AUDIO
    TITLE "19:cjc171_14236"
    INDEX 01 01:34:29
  TRACK 73 AUDIO
    TITLE "0:"
    INDEX 01 01:35:46
  TRACK 74 AUDIO
    TITLE "20:cjc171_14237"
    INDEX 01 01:36:10
  TRACK 75 AUDIO
    TITLE "0:"
    INDEX 01 01:38:21
  TRACK 76 AUDIO
    TITLE "21:cjc171_14238"
    INDEX 01 01:39:22
  TRACK 77 AUDIO
    TITLE "0:"
    INDEX 01 01:41:49
  TRACK 78 AUDIO
    TITLE "22:cjc171_14239"
    INDEX 01 01:42:13
  TRACK 79 AUDIO
    TITLE "0:"
    INDEX 01 01:44:24
  TRACK 80 AUDIO
    TITLE "23:cjc171_14240"
    INDEX 01 01:44:53
  TRACK 81 AUDIO
    TITLE "0:"
    INDEX 01 01:46:64
  TRACK 82 AUDIO
    TITLE "19:cjc171_14241"
    INDEX 01 01:47:67
  TRACK 83 AUDIO
    TITLE "0:"
    INDEX 01 01:48:72
  TRACK 84 AUDIO
    TITLE "20:cjc171_14242"
    INDEX 01 01:49:33
  TRACK 85 AUDIO
    TITLE "0:"
    INDEX 01 01:50:42
  TRACK 86 AUDIO
    TITLE "21:cjc171_14243"
    INDEX 01 01:51:39
  TRACK 87 AUDIO
    TITLE "0:"
    INDEX 01 01:54:14
  TRACK 88 AUDIO
    TITLE "22:cjc171_14244"
    INDEX 01 01:54:53
  TRACK 89 AUDIO
    TITLE "0:"
    INDEX 01 01:57:03
  TRACK 90 AUDIO
    TITLE "23:cjc171_14245"
    INDEX 01 01:57:32
  TRACK 91 AUDIO
    TITLE "0:"
    INDEX 01 01:59:56
  TRACK 92 AUDIO
    TITLE "19:cjc171_14246"
    INDEX 01 02:00:62
  TRACK 93 AUDIO
    TITLE "0:"
    INDEX 01 02:02:02
  TRACK 94 AUDIO
    TITLE "20:cjc171_14247"
    INDEX 01 02:02:43
  TRACK 95 AUDIO
    TITLE "0:"
    INDEX 01 02:04:67
  TRACK 96 AUDIO
    TITLE "21:cjc171_14248"
    INDEX 01 02:05:69
  TRACK 97 AUDIO
    TITLE "0:"
    INDEX 01 02:08:28
  TRACK 98 AUDIO
    TITLE "22:cjc171_14249"
    INDEX 01 02:08:67
  TRACK 99 AUDIO
    TITLE "0:"
    INDEX 01 02:11:38
  TRACK 100 AUDIO
    TITLE "23:cjc171_14250"
    INDEX 01 02:11:69
  TRACK 101 AUDIO
    TITLE "0:"
    INDEX 01 02:14:40
  TRACK 102 AUDIO
    TITLE "19:cjc171_14251"
    INDEX 01 02:15:44
  TRACK 103 AUDIO
    TITLE "0:"
    INDEX 01 02:16:53
  TRACK 104 AUDIO
    TITLE "20:cjc171_14252"
    INDEX 01 02:17:19
  TRACK 105 AUDIO
    TITLE "0:"
    INDEX 01 02:18:32
  TRACK 106 AUDIO
    TITLE "21:cjc171_14253"
    INDEX 01 02:19:30
  TRACK 107 AUDIO
    TITLE "0:"
    INDEX 01 02:21:23
  TRACK 108 AUDIO
    TITLE "22:cjc171_14254"
    INDEX 01 02:21:54
  TRACK 109 AUDIO
    TITLE "0:"
    INDEX 01 02:24:01
  TRACK 110 AUDIO
    TITLE "23:cjc171_14255"
    INDEX 01 02:24:23
  TRACK 111 AUDIO
    TITLE "0:"
    INDEX 01 02:26:43
  TRACK 112 AUDIO
    TITLE "19:cjc171_14256"
    INDEX 01 02:27:39
  TRACK 113 AUDIO
    TITLE "0:"
    INDEX 01 02:28:68
  TRACK 114 AUDIO
    TITLE "20:cjc171_14257"
    INDEX 01 02:29:34
  TRACK 115 AUDIO
    TITLE "0:"
    INDEX 01 02:30:43
  TRACK 116 AUDIO
    TITLE "21:cjc171_14258"
    INDEX 01 02:31:43
  TRACK 117 AUDIO
    TITLE "0:"
    INDEX 01 02:33:12
  TRACK 118 AUDIO
    TITLE "22:cjc171_14259"
    INDEX 01 02:33:47
  TRACK 119 AUDIO
    TITLE "0:"
    INDEX 01 02:35:42
  TRACK 120 AUDIO
    TITLE "23:cjc171_14260"
    INDEX 01 02:35:62
  TRACK 121 AUDIO
    TITLE "0:"
    INDEX 01 02:37:57
  TRACK 122 AUDIO
    TITLE "19:cjc171_14261"
    INDEX 01 02:38:56
  TRACK 123 AUDIO
    TITLE "0:"
    INDEX 01 02:39:66
  TRACK 124 AUDIO
    TITLE "20:cjc171_14262"
    INDEX 01 02:40:32
  TRACK 125 AUDIO
    TITLE "0:"
    INDEX 01 02:43:52
  TRACK 126 AUDIO
    TITLE "21:cjc171_14263"
    INDEX 01 02:44:51
  TRACK 127 AUDIO
    TITLE "0:"
    INDEX 01 02:46:68
  TRACK 128 AUDIO
    TITLE "22:cjc171_14264"
    INDEX 01 02:47:32
  TRACK 129 AUDIO
    TITLE "0:"
    INDEX 01 02:49:27
  TRACK 130 AUDIO
    TITLE "23:cjc171_14265"
    INDEX 01 02:49:56
  TRACK 131 AUDIO
    TITLE "0:"
    INDEX 01 02:51:51
  TRACK 132 AUDIO
    TITLE "19:cjc171_14266"
    INDEX 01 02:52:57
  TRACK 133 AUDIO
    TITLE "0:"
    INDEX 01 02:54:10
  TRACK 134 AUDIO
    TITLE "20:cjc171_14267"
    INDEX 01 02:54:50
  TRACK 135 AUDIO
    TITLE "0:"
    INDEX 01 02:55:51
  TRACK 136 AUDIO
    TITLE "21:cjc171_14268"
    INDEX 01 02:56:50
  TRACK 137 AUDIO
    TITLE "0:"
    INDEX 01 02:59:31
  TRACK 138 AUDIO
    TITLE "22:cjc171_14269"
    INDEX 01 02:59:70
  TRACK 139 AUDIO
    TITLE "0:"
    INDEX 01 03:02:43
  TRACK 140 AUDIO
    TITLE "23:cjc171_14270"
    INDEX 01 03:02:73
  TRACK 141 AUDIO
    TITLE "0:"
    INDEX 01 03:05:45
  TRACK 142 AUDIO
    TITLE "19:cjc171_14271"
    INDEX 01 03:06:47
  TRACK 143 AUDIO
    TITLE "0:"
    INDEX 01 03:07:50
  TRACK 144 AUDIO
    TITLE "20:cjc171_14272"
    INDEX 01 03:08:12
  TRACK 145 AUDIO
    TITLE "0:"
    INDEX 01 03:10:54
  TRACK 146 AUDIO
    TITLE "21:cjc171_14273"
    INDEX 01 03:11:52
  TRACK 147 AUDIO
    TITLE "0:"
    INDEX 01 03:13:65
  TRACK 148 AUDIO
    TITLE "22:cjc171_14274"
    INDEX 01 03:14:29
  TRACK 149 AUDIO
    TITLE "0:"
    INDEX 01 03:16:43
  TRACK 150 AUDIO
    TITLE "23:cjc171_14275"
    INDEX 01 03:16:67
  TRACK 151 AUDIO
    TITLE "0:"
    INDEX 01 03:19:06
  TRACK 152 AUDIO
    TITLE "19:cjc171_14276"
    INDEX 01 03:19:75
  TRACK 153 AUDIO
    TITLE "0:"
    INDEX 01 03:21:27
  TRACK 154 AUDIO
    TITLE "20:cjc171_14277"
    INDEX 01 03:21:62
  TRACK 155 AUDIO
    TITLE "0:"
    INDEX 01 03:22:67
  TRACK 156 AUDIO
    TITLE "21:cjc171_14278"
    INDEX 01 03:23:67
  TRACK 157 AUDIO
    TITLE "0:"
    INDEX 01 03:26:22
  TRACK 158 AUDIO
    TITLE "22:cjc171_14279"
    INDEX 01 03:26:54
  TRACK 159 AUDIO
    TITLE "0:"
    INDEX 01 03:29:34
  TRACK 160 AUDIO
    TITLE "23:cjc171_14280"
    INDEX 01 03:29:54
  TRACK 161 AUDIO
    TITLE "0:"
    INDEX 01 03:32:35
  TRACK 162 AUDIO
    TITLE "19:cjc171_14281"
    INDEX 01 03:33:34
  TRACK 163 AUDIO
    TITLE "0:"
    INDEX 01 03:34:53
  TRACK 164 AUDIO
    TITLE "20:cjc171_14282"
    INDEX 01 03:35:19
  TRACK 165 AUDIO
    TITLE "0:"
    INDEX 01 03:36:48
  TRACK 166 AUDIO
    TITLE "21:cjc171_14283"
    INDEX 01 03:37:49
  TRACK 167 AUDIO
    TITLE "0:"
    INDEX 01 03:39:42
  TRACK 168 AUDIO
    TITLE "22:cjc171_14284"
    INDEX 01 03:40:05
  TRACK 169 AUDIO
    TITLE "0:"
    INDEX 01 03:42:02
  TRACK 170 AUDIO
    TITLE "23:cjc171_14285"
    INDEX 01 03:42:33
  TRACK 171 AUDIO
    TITLE "0:"
    INDEX 01 03:44:30
  TRACK 172 AUDIO
    TITLE "19:cjc171_14286"
    INDEX 01 03:45:35
  TRACK 173 AUDIO
    TITLE "0:"
    INDEX 01 03:46:50
  TRACK 174 AUDIO
    TITLE "20:cjc171_14287"
    INDEX 01 03:47:15
  TRACK 175 AUDIO
    TITLE "0:"
    INDEX 01 03:48:36
  TRACK 176 AUDIO
    TITLE "21:cjc171_14288"
    INDEX 01 03:49:35
  TRACK 177 AUDIO
    TITLE "0:"
    INDEX 01 03:52:16
  TRACK 178 AUDIO
    TITLE "22:cjc171_14289"
    INDEX 01 03:52:55
  TRACK 179 AUDIO
    TITLE "0:"
    INDEX 01 03:55:40
  TRACK 180 AUDIO
    TITLE "23:cjc171_14290"
    INDEX 01 03:55:67
  TRACK 181 AUDIO
    TITLE "0:"
    INDEX 01 03:58:52
  TRACK 182 AUDIO
    TITLE "19:cjc171_14291"
    INDEX 01 03:59:49
  TRACK 183 AUDIO
    TITLE "0:"
    INDEX 01 04:00:62
  TRACK 184 AUDIO
    TITLE "20:cjc171_14292"
    INDEX 01 04:01:22
  TRACK 185 AUDIO
    TITLE "0:"
    INDEX 01 04:03:59
  TRACK 186 AUDIO
    TITLE "21:cjc171_14293"
    INDEX 01 04:04:56
  TRACK 187 AUDIO
    TITLE "0:"
    INDEX 01 04:07:49
  TRACK 188 AUDIO
    TITLE "22:cjc171_14294"
    INDEX 01 04:08:07
  TRACK 189 AUDIO
    TITLE "0:"
    INDEX 01 04:10:47
  TRACK 190 AUDIO
    TITLE "23:cjc171_14295"
    INDEX 01 04:10:66
  TRACK 191 AUDIO
    TITLE "0:"
    INDEX 01 04:13:33
  TRACK 192 AUDIO
    TITLE "19:cjc171_14296"
    INDEX 01 04:14:27
  TRACK 193 AUDIO
    TITLE "0:"
    INDEX 01 04:15:52
  TRACK 194 AUDIO
    TITLE "20:cjc171_14297"
    INDEX 01 04:16:16
  TRACK 195 AUDIO
    TITLE "0:"
    INDEX 01 04:18:23
  TRACK 196 AUDIO
    TITLE "21:cjc171_14298"
    INDEX 01 04:19:22
  TRACK 197 AUDIO
    TITLE "0:"
    INDEX 01 04:20:67
  TRACK 198 AUDIO
    TITLE "22:cjc171_14299"
    INDEX 01 04:21:29
  TRACK 199 AUDIO
    TITLE "0:"
    INDEX 01 04:23:34
  TRACK 200 AUDIO
    TITLE "23:cjc171_14300"
    INDEX 01 04:23:55
  TRACK 201 AUDIO
    TITLE "0:"
    INDEX 01 04:25:58
